<?xml version="1.0" encoding="UTF-8"?>
<svg id="Layer_1" data-name="Layer 1" xmlns="http://www.w3.org/2000/svg" viewBox="0 0 330.34 54.22">
  <defs>
    <style>
      .cls-1 {
        fill: #00bc84;
      }

      .cls-1, .cls-2 {
        stroke-width: 0px;
      }

      .cls-2 {
        fill: #fff;
      }
    </style>
  </defs>
  <g>
    <path class="cls-2" d="M84.93,35.95l2.25,5.41c-2.1,1.95-4.41,3.46-6.91,4.51-2.51,1.05-5.14,1.58-7.89,1.58-3.36,0-6.4-.76-9.13-2.29-2.73-1.53-4.86-3.63-6.39-6.31-1.53-2.68-2.29-5.62-2.29-8.83s.78-6.21,2.33-8.87c1.55-2.65,3.67-4.76,6.35-6.31,2.68-1.55,5.65-2.33,8.91-2.33,2.75,0,5.27.58,7.55,1.73,2.28,1.15,4.16,2.81,5.64,4.96,1.48,2.16,2.39,4.66,2.74,7.52l-26.46,8.57c.9,2.05,2.3,3.68,4.21,4.88,1.9,1.2,4.11,1.8,6.61,1.8,4.66,0,8.82-2,12.48-6.01ZM66.25,19.53c-1.78,1.08-3.18,2.54-4.21,4.4-1.03,1.85-1.54,3.91-1.54,6.16l20.59-6.69c-.7-1.7-1.85-3.04-3.46-4.02-1.6-.98-3.43-1.47-5.49-1.47-2.15,0-4.12.54-5.9,1.62Z"/>
    <path class="cls-2" d="M114.24,46.63l-8.94-13.08-8.94,13.08h-7.44l12.63-17.44-11.5-15.86h7.37l7.89,11.57,7.97-11.57h7.29l-11.42,15.86,12.55,17.44h-7.44Z"/>
    <path class="cls-2" d="M134.23,18.89v17.51c0,1.65.41,2.92,1.24,3.8.83.88,1.99,1.32,3.5,1.32.75,0,1.57-.1,2.44-.3.88-.2,1.64-.45,2.29-.75v5.64c-.7.3-1.55.56-2.55.79-1,.23-2.06.34-3.16.34-3.11,0-5.56-.91-7.37-2.74s-2.71-4.35-2.71-7.55v-18.04h-5.04l1.05-5.56h3.98v-7.14l6.31-3.53v10.67h9.47v5.56h-9.47Z"/>
    <path class="cls-2" d="M176.54,35.95l2.25,5.41c-2.1,1.95-4.41,3.46-6.91,4.51-2.51,1.05-5.14,1.58-7.89,1.58-3.36,0-6.4-.76-9.13-2.29-2.73-1.53-4.86-3.63-6.39-6.31-1.53-2.68-2.29-5.62-2.29-8.83s.78-6.21,2.33-8.87c1.55-2.65,3.67-4.76,6.35-6.31,2.68-1.55,5.65-2.33,8.91-2.33,2.75,0,5.27.58,7.55,1.73,2.28,1.15,4.16,2.81,5.64,4.96,1.48,2.16,2.39,4.66,2.74,7.52l-26.46,8.57c.9,2.05,2.3,3.68,4.21,4.88,1.9,1.2,4.11,1.8,6.61,1.8,4.66,0,8.82-2,12.48-6.01ZM157.86,19.53c-1.78,1.08-3.18,2.54-4.21,4.4-1.03,1.85-1.54,3.91-1.54,6.16l20.59-6.69c-.7-1.7-1.85-3.04-3.46-4.02-1.6-.98-3.43-1.47-5.49-1.47-2.15,0-4.12.54-5.9,1.62Z"/>
    <path class="cls-2" d="M207.8,14.16c1.95,1.1,3.48,2.72,4.58,4.85,1.1,2.13,1.65,4.62,1.65,7.48v20.14h-6.31v-19.54c0-2.81-.73-4.98-2.18-6.54-1.45-1.55-3.41-2.33-5.86-2.33-1.7,0-3.23.39-4.58,1.17-1.35.78-2.41,1.89-3.16,3.34-.75,1.45-1.13,3.13-1.13,5.04v18.86h-6.31V13.78l6.01-.98v4.43c1.25-1.5,2.78-2.67,4.58-3.49,1.8-.83,3.78-1.24,5.94-1.24,2.56,0,4.81.55,6.76,1.65Z"/>
    <path class="cls-2" d="M253.95.57v46.06h-6.16v-4.81c-1.45,1.75-3.19,3.12-5.22,4.1-2.03.98-4.27,1.47-6.73,1.47-3.06,0-5.89-.76-8.49-2.29-2.61-1.53-4.67-3.63-6.2-6.31-1.53-2.68-2.29-5.62-2.29-8.83s.76-6.14,2.29-8.79c1.53-2.65,3.59-4.76,6.2-6.31,2.6-1.55,5.44-2.33,8.49-2.33,2.4,0,4.61.48,6.61,1.43,2,.95,3.73,2.28,5.19,3.98V1.62l6.31-1.05ZM242.38,40.16c1.75-1.05,3.14-2.48,4.17-4.28,1.03-1.8,1.54-3.78,1.54-5.94s-.51-4.12-1.54-5.9c-1.03-1.78-2.42-3.19-4.17-4.25-1.75-1.05-3.68-1.58-5.79-1.58s-4.03.53-5.79,1.58c-1.75,1.05-3.13,2.47-4.13,4.25-1,1.78-1.5,3.75-1.5,5.9s.5,4.13,1.5,5.94c1,1.8,2.38,3.23,4.13,4.28,1.75,1.05,3.68,1.58,5.79,1.58s4.03-.53,5.79-1.58Z"/>
    <path class="cls-2" d="M288.6,35.95l2.25,5.41c-2.1,1.95-4.41,3.46-6.91,4.51-2.51,1.05-5.14,1.58-7.89,1.58-3.36,0-6.4-.76-9.13-2.29-2.73-1.53-4.86-3.63-6.39-6.31-1.53-2.68-2.29-5.62-2.29-8.83s.78-6.21,2.33-8.87c1.55-2.65,3.67-4.76,6.35-6.31,2.68-1.55,5.65-2.33,8.91-2.33,2.75,0,5.27.58,7.55,1.73,2.28,1.15,4.16,2.81,5.64,4.96,1.48,2.16,2.39,4.66,2.74,7.52l-26.46,8.57c.9,2.05,2.3,3.68,4.21,4.88,1.9,1.2,4.11,1.8,6.61,1.8,4.66,0,8.82-2,12.48-6.01ZM269.92,19.53c-1.78,1.08-3.18,2.54-4.21,4.4-1.03,1.85-1.54,3.91-1.54,6.16l20.59-6.69c-.7-1.7-1.85-3.04-3.46-4.02-1.6-.98-3.43-1.47-5.49-1.47-2.15,0-4.12.54-5.9,1.62Z"/>
    <path class="cls-2" d="M330.01.57v46.06h-6.16v-4.81c-1.45,1.75-3.19,3.12-5.22,4.1-2.03.98-4.27,1.47-6.73,1.47-3.06,0-5.89-.76-8.49-2.29-2.61-1.53-4.67-3.63-6.2-6.31-1.53-2.68-2.29-5.62-2.29-8.83s.76-6.14,2.29-8.79c1.53-2.65,3.59-4.76,6.2-6.31,2.6-1.55,5.44-2.33,8.49-2.33,2.4,0,4.61.48,6.61,1.43,2,.95,3.73,2.28,5.19,3.98V1.62l6.31-1.05ZM318.43,40.16c1.75-1.05,3.14-2.48,4.17-4.28,1.03-1.8,1.54-3.78,1.54-5.94s-.51-4.12-1.54-5.9c-1.03-1.78-2.42-3.19-4.17-4.25-1.75-1.05-3.68-1.58-5.79-1.58s-4.03.53-5.79,1.58c-1.75,1.05-3.13,2.47-4.13,4.25-1,1.78-1.5,3.75-1.5,5.9s.5,4.13,1.5,5.94c1,1.8,2.38,3.23,4.13,4.28,1.75,1.05,3.68,1.58,5.79,1.58s4.03-.53,5.79-1.58Z"/>
  </g>
  <path class="cls-1" d="M23.94,14.52C15.01,14.52,6.8,11.46.28,6.34c5.12,6.52,8.19,14.73,8.19,23.66S5.41,47.13.28,53.65c6.52-5.12,14.73-8.19,23.66-8.19s17.14,3.06,23.66,8.19c-5.12-6.52-8.19-14.73-8.19-23.66s3.06-17.14,8.19-23.66c-6.51,5.12-14.73,8.19-23.66,8.19Z"/>
</svg>